<svg xmlns="http://www.w3.org/2000/svg" width="1440" height="900" viewBox="0 0 1440 900" role="img" aria-label="AutoRestic snapshots screenshot with sanitized demo data">
  <defs>
    <style>
      .bg{fill:#070d0f}.side{fill:#0b1114}.panel{fill:#10181c;stroke:#243139}.card{fill:#11171b;stroke:#29343b}.table-head{fill:#29292e}.row{fill:#1b1b20}.text{fill:#edf3f5;font:600 18px Arial,sans-serif}.title{fill:#f4f8f8;font:700 30px Arial,sans-serif}.muted{fill:#9aa5aa;font:14px Arial,sans-serif}.small{fill:#c8d0d3;font:13px Arial,sans-serif}.accent{fill:#5ee8c4}.btn{fill:#282a30}.primary{fill:#50d9b5}.line{stroke:#26343a}.pill{fill:#25272c;stroke:#626a72}
    </style>
  </defs>
  <rect class="bg" width="1440" height="900"/>
  <rect class="side" width="214" height="900"/><line x1="214" y1="0" x2="214" y2="900" class="line"/>
  <text x="54" y="28" class="text" font-size="14">AutoRestic</text><text x="54" y="45" class="muted" font-size="12">Backup Console</text>
  <text x="43" y="111" class="small">Dashboard</text><text x="43" y="159" class="small">Repositories</text><text x="43" y="207" class="small">Backup Tasks</text><rect x="0" y="221" width="205" height="43" rx="7" fill="#0f3b32"/><text x="43" y="250" class="accent">Snapshots</text><text x="43" y="303" class="small">Logs</text><text x="43" y="351" class="small">Settings</text>
  <rect x="214" y="0" width="1226" height="70" fill="#081011"/><text x="238" y="24" class="muted">Snapshots</text><text x="238" y="53" class="title" font-size="26">Snapshots</text>
  <text x="241" y="108" class="title">Snapshot Management</text>
  <text x="241" y="132" class="muted">DB-first snapshot index for large repositories. Load local index first, then start background sync when needed.</text>
  <rect x="241" y="153" width="1212" height="166" rx="3" class="panel"/>
  <rect x="266" y="174" width="220" height="34" rx="3" class="card"/><text x="278" y="196" class="small">MediaVault</text><text x="463" y="196" class="muted">v</text>
  <rect x="499" y="174" width="135" height="34" rx="3" class="btn"/><text x="512" y="196" class="small">All snapshots</text>
  <rect x="646" y="174" width="84" height="34" rx="3" class="primary"/><text x="662" y="196" fill="#062a23" font="700 13px Arial">Load</text>
  <rect x="742" y="174" width="112" height="34" rx="3" class="btn"/><text x="757" y="196" class="small">Start sync</text>
  <rect x="866" y="174" width="112" height="34" rx="3" class="btn"/><text x="881" y="196" class="small">Load all</text>
  <rect x="266" y="224" width="282" height="75" rx="7" class="card"/><text x="280" y="253" class="muted">Sync status</text><rect x="280" y="265" width="256" height="20" rx="10" fill="#0d3029" stroke="#2ec9aa"/><text x="297" y="280" class="accent" font="12px Arial">Done</text>
  <rect x="560" y="224" width="282" height="75" rx="7" class="card"/><text x="574" y="253" class="muted">Indexed snapshots</text><text x="574" y="281" class="text">649</text>
  <rect x="854" y="224" width="282" height="75" rx="7" class="card"/><text x="868" y="253" class="muted">Index time</text><text x="868" y="281" class="text">2026-01-15 12:40:09</text>
  <rect x="1148" y="224" width="282" height="75" rx="7" class="card"/><text x="1162" y="253" class="muted">Index health</text><text x="1162" y="281" class="text">Complete</text>

  <rect x="241" y="337" width="1212" height="540" rx="3" class="panel"/>
  <rect x="266" y="358" width="1162" height="48" class="table-head"/>
  <text x="284" y="387" class="text" font-size="14">Time</text><text x="461" y="387" class="text" font-size="14">Host</text><text x="592" y="387" class="text" font-size="14">User</text><text x="713" y="387" class="text" font-size="14">Update</text><text x="808" y="387" class="text" font-size="14">Files</text><text x="913" y="387" class="text" font-size="14">Processed</text><text x="1025" y="387" class="text" font-size="14">New Data</text><text x="1136" y="387" class="text" font-size="14">Tags</text><text x="1356" y="387" class="text" font-size="14">Path</text>
  <g>
    <rect x="266" y="406" width="1162" height="53" class="row"/><text x="284" y="438" class="small">2026-01-15 11:40:45</text><text x="461" y="438" class="small">demo-host</text><text x="592" y="438" class="small">backup</text><rect x="712" y="419" width="38" height="22" rx="11" class="pill"/><text x="719" y="435" class="small">auto</text><text x="808" y="438" class="small">12,942</text><text x="913" y="438" class="small">2.4 GiB</text><text x="1025" y="438" class="small">312 MiB</text><text x="1136" y="438" class="small">nightly</text><text x="1356" y="438" class="small">/backup/photos</text>
    <rect x="266" y="459" width="1162" height="53" class="row"/><text x="284" y="491" class="small">2026-01-15 11:33:48</text><text x="461" y="491" class="small">demo-host</text><text x="592" y="491" class="small">backup</text><rect x="712" y="472" width="38" height="22" rx="11" class="pill"/><text x="719" y="488" class="small">auto</text><text x="808" y="491" class="small">8,105</text><text x="913" y="491" class="small">1.1 GiB</text><text x="1025" y="491" class="small">90 MiB</text><text x="1136" y="491" class="small">nightly</text><text x="1356" y="491" class="small">/backup/projects</text>
    <rect x="266" y="512" width="1162" height="53" class="row"/><text x="284" y="544" class="small">2026-01-14 20:25:00</text><text x="461" y="544" class="small">demo-host</text><text x="592" y="544" class="small">backup</text><rect x="712" y="525" width="38" height="22" rx="11" class="pill"/><text x="719" y="541" class="small">auto</text><text x="808" y="544" class="small">9,420</text><text x="913" y="544" class="small">1.8 GiB</text><text x="1025" y="544" class="small">144 MiB</text><text x="1136" y="544" class="small">nightly</text><text x="1356" y="544" class="small">/backup/config</text>
    <rect x="266" y="565" width="1162" height="53" class="row"/><text x="284" y="597" class="small">2026-01-13 20:24:09</text><text x="461" y="597" class="small">demo-host</text><text x="592" y="597" class="small">backup</text><rect x="712" y="578" width="38" height="22" rx="11" class="pill"/><text x="719" y="594" class="small">auto</text><text x="808" y="597" class="small">9,416</text><text x="913" y="597" class="small">1.8 GiB</text><text x="1025" y="597" class="small">0 B</text><text x="1136" y="597" class="small">daily</text><text x="1356" y="597" class="small">/backup/config</text>
  </g>
</svg>
